                                                                        S0000001
,,31HOpen CASCADE IGES processor 6.5,13HFilename.iges,                  G0000001
16HOpen CASCADE 6.5,31HOpen CASCADE IGES processor 6.5,32,308,15,308,15,G0000002
,1.,6,1HM,1,0.01,15H20161205.163638,1E-07,2.504635,5Hamola,,11,0,       G0000003
15H20161205.163638,;                                                    G0000004
     510       1       0       0       0       0       0       000010000D0000001
     510       0       0       1       1                               0D0000002
     128       2       0       0       0       0       0       000010000D0000003
     128       0       0     100       0                               0D0000004
     508     102       0       0       0       0       0       000010000D0000005
     508       0       0       2       1                               0D0000006
     504     104       0       0       0       0       0       000010001D0000007
     504       0       0       1       1                               0D0000008
     126     105       0       0       0       0       0       000010000D0000009
     126       0       0       2       0                               0D0000010
     502     107       0       0       0       0       0       000010000D0000011
     502       0       0       1       1                               0D0000012
     126     108       0       0       0       0       0       000010000D0000013
     126       0       0      56       0                               0D0000014
     126     164       0       0       0       0       0       000010000D0000015
     126       0       0       2       0                               0D0000016
     126     166       0       0       0       0       0       000010000D0000017
     126       0       0      61       0                               0D0000018
     126     227       0       0       0       0       0       000010000D0000019
     126       0       0       2       0                               0D0000020
     126     229       0       0       0       0       0       000010000D0000021
     126       0       0       3       0                               0D0000022
     126     232       0       0       0       0       0       000010000D0000023
     126       0       0       2       0                               0D0000024
     126     234       0       0       0       0       0       000010000D0000025
     126       0       0       3       0                               0D0000026
510,3,1,1,5;                                                     0000001P0000001
128,68,1,3,1,0,0,1,0,0,0.,0.,0.,0.,4.299843718E-03,              0000003P0000002
8.821244054E-03,1.38279149E-02,1.951206163E-02,2.599879247E-02,  0000003P0000003
3.336711555E-02,4.166185081E-02,5.090790348E-02,6.111402071E-02, 0000003P0000004
7.228008202E-02,8.439776121E-02,9.745288036E-02,0.111426179,     0000003P0000005
0.126293482,0.142029186,0.158603159,0.17598219,0.194132445,      0000003P0000006
0.213015741,0.232592439,0.252820384,0.273656127,0.295054734,     0000003P0000007
0.316968995,0.339349285,0.362145645,0.385305779,0.408779071,     0000003P0000008
0.432510563,0.456445078,0.480528177,0.50470317,0.528915244,      0000003P0000009
0.553106307,0.577221181,0.601203641,0.624995215,0.648542475,     0000003P0000010
0.671789018,0.694680101,0.717161282,0.73918187,0.760688338,      0000003P0000011
0.781629802,0.801957849,0.821624613,0.840583516,0.858789608,     0000003P0000012
0.876200357,0.892772862,0.908470273,0.923254847,0.937089691,     0000003P0000013
0.949943842,0.961785707,0.972587263,0.982322707,0.990969196,     0000003P0000014
0.998505136,1.004912747,1.010176225,1.014283411,1.017224707,     0000003P0000015
1.018991773,1.019581502,1.029660569,1.029660569,1.029660569,     0000003P0000016
1.029660569,-5.,-5.,0.,0.,1.,1.,1.,1.,1.,1.,1.,1.,1.,1.,1.,1.,   0000003P0000017
1.,1.,1.,1.,1.,1.,1.,1.,1.,1.,1.,1.,1.,1.,1.,1.,1.,1.,1.,1.,1.,  0000003P0000018
1.,1.,1.,1.,1.,1.,1.,1.,1.,1.,1.,1.,1.,1.,1.,1.,1.,1.,1.,1.,1.,  0000003P0000019
1.,1.,1.,1.,1.,1.,1.,1.,1.,1.,1.,1.,1.,1.,1.,1.,1.,1.,1.,1.,1.,  0000003P0000020
1.,1.,1.,1.,1.,1.,1.,1.,1.,1.,1.,1.,1.,1.,1.,1.,1.,1.,1.,1.,1.,  0000003P0000021
1.,1.,1.,1.,1.,1.,1.,1.,1.,1.,1.,1.,1.,1.,1.,1.,1.,1.,1.,1.,1.,  0000003P0000022
1.,1.,1.,1.,1.,1.,1.,1.,1.,1.,1.,1.,1.,1.,1.,1.,1.,1.,1.,1.,1.,  0000003P0000023
0.,2.5,0.,-1.232957866E-05,2.5,1.453715274E-03,4.143242186E-04,  0000003P0000024
2.5,4.378902723E-03,2.235125045E-03,2.5,8.66459269E-03,          0000003P0000025
5.228437791E-03,2.5,1.277529677E-02,9.340486677E-03,2.5,         0000003P0000026
1.674874281E-02,1.456557979E-02,2.5,2.059064811E-02,             0000003P0000027
2.089225679E-02,2.5,2.430912029E-02,2.831359267E-02,2.5,         0000003P0000028
2.789727674E-02,3.681530669E-02,2.5,3.134783322E-02,             0000003P0000029
4.638061443E-02,2.5,3.465077648E-02,5.698910322E-02,2.5,         0000003P0000030
3.779471735E-02,6.861738574E-02,2.5,4.076920911E-02,             0000003P0000031
8.123976577E-02,2.5,4.356092828E-02,9.482674417E-02,2.5,         0000003P0000032
4.616041067E-02,0.109347051,2.5,4.855788201E-02,0.124767407,2.5, 0000003P0000033
5.074136007E-02,0.141051488,2.5,5.270677469E-02,0.15816175,2.5,  0000003P0000034
5.444613698E-02,0.176058439,2.5,5.595284873E-02,0.194699946,2.5, 0000003P0000035
5.722417149E-02,0.214042373,2.5,5.825984015E-02,0.234040689,2.5, 0000003P0000036
5.90569519E-02,0.254648232,2.5,5.962123417E-02,0.275817329,2.5,  0000003P0000037
5.99501899E-02,0.297498377,2.5,6.005376045E-02,0.319640631,2.5,  0000003P0000038
5.993660239E-02,0.342191945,2.5,5.960567747E-02,0.365100197,2.5, 0000003P0000039
5.907028682E-02,0.388311907,2.5,5.833986887E-02,0.411773032,2.5, 0000003P0000040
5.74274162E-02,0.435428427,2.5,5.634305875E-02,0.459222651,2.5,  0000003P0000041
5.509887611E-02,0.483100675,2.5,5.370845121E-02,0.507006287,2.5, 0000003P0000042
5.218277959E-02,0.530884155,2.5,5.053659569E-02,0.554678537,2.5, 0000003P0000043
4.878304895E-02,0.578333517,2.5,4.693313743E-02,0.601794149,2.5, 0000003P0000044
4.500171132E-02,0.625005343,2.5,4.300110502E-02,0.647913008,2.5, 0000003P0000045
4.094026701E-02,0.670463502,2.5,3.883623394E-02,0.69260422,2.5,  0000003P0000046
3.669588469E-02,0.714283747,2.5,3.453408494E-02,0.735451108,2.5, 0000003P0000047
3.235762435E-02,0.756057127,2.5,3.018328583E-02,0.77605323,2.5,  0000003P0000048
2.801509871E-02,0.7953935,2.5,2.586855724E-02,0.814032153,2.5,   0000003P0000049
2.374942658E-02,0.831926243,2.5,2.167290838E-02,0.84903296,2.5,  0000003P0000050
1.964430573E-02,0.865312977,2.5,1.767577089E-02,0.880728383,2.5, 0000003P0000051
1.577758992E-02,0.89524306,2.5,1.395823595E-02,0.908822977,2.5,  0000003P0000052
1.22271187E-02,0.921436519,2.5,1.059634975E-02,0.933054022,2.5,  0000003P0000053
9.070053083E-03,0.943648594,2.5,7.660480161E-03,0.95319555,2.5,  0000003P0000054
6.374252092E-03,0.961672699,2.5,5.220603486E-03,0.969059966,2.5, 0000003P0000055
4.204466917E-03,0.975339844,2.5,3.332425827E-03,0.980498373,2.5, 0000003P0000056
2.613906371E-03,0.984522915,2.5,2.048029985E-03,0.987404321,2.5, 0000003P0000057
1.641219034E-03,0.989136015,2.5,1.396636059E-03,0.993200341,2.5, 0000003P0000058
8.198672984E-04,0.996688072,2.5,3.323139682E-04,1.,2.5,0.,0.,    0000003P0000059
-2.5,0.,-1.232957866E-05,-2.5,1.453715274E-03,4.143242186E-04,   0000003P0000060
-2.5,4.378902723E-03,2.235125045E-03,-2.5,8.66459269E-03,        0000003P0000061
5.228437791E-03,-2.5,1.277529677E-02,9.340486677E-03,-2.5,       0000003P0000062
1.674874281E-02,1.456557979E-02,-2.5,2.059064811E-02,            0000003P0000063
2.089225679E-02,-2.5,2.430912029E-02,2.831359267E-02,-2.5,       0000003P0000064
2.789727674E-02,3.681530669E-02,-2.5,3.134783322E-02,            0000003P0000065
4.638061443E-02,-2.5,3.465077648E-02,5.698910322E-02,-2.5,       0000003P0000066
3.779471735E-02,6.861738574E-02,-2.5,4.076920911E-02,            0000003P0000067
8.123976577E-02,-2.5,4.356092828E-02,9.482674417E-02,-2.5,       0000003P0000068
4.616041067E-02,0.109347051,-2.5,4.855788201E-02,0.124767407,    0000003P0000069
-2.5,5.074136007E-02,0.141051488,-2.5,5.270677469E-02,           0000003P0000070
0.15816175,-2.5,5.444613698E-02,0.176058439,-2.5,                0000003P0000071
5.595284873E-02,0.194699946,-2.5,5.722417149E-02,0.214042373,    0000003P0000072
-2.5,5.825984015E-02,0.234040689,-2.5,5.90569519E-02,            0000003P0000073
0.254648232,-2.5,5.962123417E-02,0.275817329,-2.5,               0000003P0000074
5.99501899E-02,0.297498377,-2.5,6.005376045E-02,0.319640631,     0000003P0000075
-2.5,5.993660239E-02,0.342191945,-2.5,5.960567747E-02,           0000003P0000076
0.365100197,-2.5,5.907028682E-02,0.388311907,-2.5,               0000003P0000077
5.833986887E-02,0.411773032,-2.5,5.74274162E-02,0.435428427,     0000003P0000078
-2.5,5.634305875E-02,0.459222651,-2.5,5.509887611E-02,           0000003P0000079
0.483100675,-2.5,5.370845121E-02,0.507006287,-2.5,               0000003P0000080
5.218277959E-02,0.530884155,-2.5,5.053659569E-02,0.554678537,    0000003P0000081
-2.5,4.878304895E-02,0.578333517,-2.5,4.693313743E-02,           0000003P0000082
0.601794149,-2.5,4.500171132E-02,0.625005343,-2.5,               0000003P0000083
4.300110502E-02,0.647913008,-2.5,4.094026701E-02,0.670463502,    0000003P0000084
-2.5,3.883623394E-02,0.69260422,-2.5,3.669588469E-02,            0000003P0000085
0.714283747,-2.5,3.453408494E-02,0.735451108,-2.5,               0000003P0000086
3.235762435E-02,0.756057127,-2.5,3.018328583E-02,0.77605323,     0000003P0000087
-2.5,2.801509871E-02,0.7953935,-2.5,2.586855724E-02,0.814032153, 0000003P0000088
-2.5,2.374942658E-02,0.831926243,-2.5,2.167290838E-02,           0000003P0000089
0.84903296,-2.5,1.964430573E-02,0.865312977,-2.5,                0000003P0000090
1.767577089E-02,0.880728383,-2.5,1.577758992E-02,0.89524306,     0000003P0000091
-2.5,1.395823595E-02,0.908822977,-2.5,1.22271187E-02,            0000003P0000092
0.921436519,-2.5,1.059634975E-02,0.933054022,-2.5,               0000003P0000093
9.070053083E-03,0.943648594,-2.5,7.660480161E-03,0.95319555,     0000003P0000094
-2.5,6.374252092E-03,0.961672699,-2.5,5.220603486E-03,           0000003P0000095
0.969059966,-2.5,4.204466917E-03,0.975339844,-2.5,               0000003P0000096
3.332425827E-03,0.980498373,-2.5,2.613906371E-03,0.984522915,    0000003P0000097
-2.5,2.048029985E-03,0.987404321,-2.5,1.641219034E-03,           0000003P0000098
0.989136015,-2.5,1.396636059E-03,0.993200341,-2.5,               0000003P0000099
8.198672984E-04,0.996688072,-2.5,3.323139682E-04,1.,-2.5,0.,0.,  0000003P0000100
1.029660569,-5.,0.;                                              0000003P0000101
508,4,0,7,1,1,1,0,19,0,7,2,1,1,0,21,0,7,3,0,1,0,23,0,7,4,0,1,0,  0000005P0000102
25;                                                              0000005P0000103
504,4,9,11,1,11,2,13,11,2,11,3,15,11,4,11,3,17,11,1,11,4;        0000007P0000104
126,1,1,1,0,1,0,0.,0.,5.,5.,1.,1.,0.,-2.5,0.,0.,2.5,0.,0.,5.,0., 0000009P0000105
0.,1.;                                                           0000009P0000106
502,4,0.,-2.5,0.,0.,2.5,0.,1.,2.5,0.,1.,-2.5,0.;                 0000011P0000107
126,68,3,1,0,1,0,0.,0.,0.,0.,4.299843718E-03,8.821244054E-03,    0000013P0000108
1.38279149E-02,1.951206163E-02,2.599879247E-02,3.336711555E-02,  0000013P0000109
4.166185081E-02,5.090790348E-02,6.111402071E-02,7.228008202E-02, 0000013P0000110
8.439776121E-02,9.745288036E-02,0.111426179,0.126293482,         0000013P0000111
0.142029186,0.158603159,0.17598219,0.194132445,0.213015741,      0000013P0000112
0.232592439,0.252820384,0.273656127,0.295054734,0.316968995,     0000013P0000113
0.339349285,0.362145645,0.385305779,0.408779071,0.432510563,     0000013P0000114
0.456445078,0.480528177,0.50470317,0.528915244,0.553106307,      0000013P0000115
0.577221181,0.601203641,0.624995215,0.648542475,0.671789018,     0000013P0000116
0.694680101,0.717161282,0.73918187,0.760688338,0.781629802,      0000013P0000117
0.801957849,0.821624613,0.840583516,0.858789608,0.876200357,     0000013P0000118
0.892772862,0.908470273,0.923254847,0.937089691,0.949943842,     0000013P0000119
0.961785707,0.972587263,0.982322707,0.990969196,0.998505136,     0000013P0000120
1.004912747,1.010176225,1.014283411,1.017224707,1.018991773,     0000013P0000121
1.019581502,1.029660569,1.029660569,1.029660569,1.029660569,1.,  0000013P0000122
1.,1.,1.,1.,1.,1.,1.,1.,1.,1.,1.,1.,1.,1.,1.,1.,1.,1.,1.,1.,1.,  0000013P0000123
1.,1.,1.,1.,1.,1.,1.,1.,1.,1.,1.,1.,1.,1.,1.,1.,1.,1.,1.,1.,1.,  0000013P0000124
1.,1.,1.,1.,1.,1.,1.,1.,1.,1.,1.,1.,1.,1.,1.,1.,1.,1.,1.,1.,1.,  0000013P0000125
1.,1.,1.,1.,1.,0.,2.5,0.,-1.232957866E-05,2.5,1.453715274E-03,   0000013P0000126
4.143242186E-04,2.5,4.378902723E-03,2.235125045E-03,2.5,         0000013P0000127
8.66459269E-03,5.228437791E-03,2.5,1.277529677E-02,              0000013P0000128
9.340486677E-03,2.5,1.674874281E-02,1.456557979E-02,2.5,         0000013P0000129
2.059064811E-02,2.089225679E-02,2.5,2.430912029E-02,             0000013P0000130
2.831359267E-02,2.5,2.789727674E-02,3.681530669E-02,2.5,         0000013P0000131
3.134783322E-02,4.638061443E-02,2.5,3.465077648E-02,             0000013P0000132
5.698910322E-02,2.5,3.779471735E-02,6.861738574E-02,2.5,         0000013P0000133
4.076920911E-02,8.123976577E-02,2.5,4.356092828E-02,             0000013P0000134
9.482674417E-02,2.5,4.616041067E-02,0.109347051,2.5,             0000013P0000135
4.855788201E-02,0.124767407,2.5,5.074136007E-02,0.141051488,2.5, 0000013P0000136
5.270677469E-02,0.15816175,2.5,5.444613698E-02,0.176058439,2.5,  0000013P0000137
5.595284873E-02,0.194699946,2.5,5.722417149E-02,0.214042373,2.5, 0000013P0000138
5.825984015E-02,0.234040689,2.5,5.90569519E-02,0.254648232,2.5,  0000013P0000139
5.962123417E-02,0.275817329,2.5,5.99501899E-02,0.297498377,2.5,  0000013P0000140
6.005376045E-02,0.319640631,2.5,5.993660239E-02,0.342191945,2.5, 0000013P0000141
5.960567747E-02,0.365100197,2.5,5.907028682E-02,0.388311907,2.5, 0000013P0000142
5.833986887E-02,0.411773032,2.5,5.74274162E-02,0.435428427,2.5,  0000013P0000143
5.634305875E-02,0.459222651,2.5,5.509887611E-02,0.483100675,2.5, 0000013P0000144
5.370845121E-02,0.507006287,2.5,5.218277959E-02,0.530884155,2.5, 0000013P0000145
5.053659569E-02,0.554678537,2.5,4.878304895E-02,0.578333517,2.5, 0000013P0000146
4.693313743E-02,0.601794149,2.5,4.500171132E-02,0.625005343,2.5, 0000013P0000147
4.300110502E-02,0.647913008,2.5,4.094026701E-02,0.670463502,2.5, 0000013P0000148
3.883623394E-02,0.69260422,2.5,3.669588469E-02,0.714283747,2.5,  0000013P0000149
3.453408494E-02,0.735451108,2.5,3.235762435E-02,0.756057127,2.5, 0000013P0000150
3.018328583E-02,0.77605323,2.5,2.801509871E-02,0.7953935,2.5,    0000013P0000151
2.586855724E-02,0.814032153,2.5,2.374942658E-02,0.831926243,2.5, 0000013P0000152
2.167290838E-02,0.84903296,2.5,1.964430573E-02,0.865312977,2.5,  0000013P0000153
1.767577089E-02,0.880728383,2.5,1.577758992E-02,0.89524306,2.5,  0000013P0000154
1.395823595E-02,0.908822977,2.5,1.22271187E-02,0.921436519,2.5,  0000013P0000155
1.059634975E-02,0.933054022,2.5,9.070053083E-03,0.943648594,2.5, 0000013P0000156
7.660480161E-03,0.95319555,2.5,6.374252092E-03,0.961672699,2.5,  0000013P0000157
5.220603486E-03,0.969059966,2.5,4.204466917E-03,0.975339844,2.5, 0000013P0000158
3.332425827E-03,0.980498373,2.5,2.613906371E-03,0.984522915,2.5, 0000013P0000159
2.048029985E-03,0.987404321,2.5,1.641219034E-03,0.989136015,2.5, 0000013P0000160
1.396636059E-03,0.993200341,2.5,8.198672984E-04,0.996688072,2.5, 0000013P0000161
3.323139682E-04,1.,2.5,0.,0.,1.029660569,-1.331312692E-18,1.,    0000013P0000162
5.453056785E-15;                                                 0000013P0000163
126,1,1,1,0,1,0,0.,0.,5.,5.,1.,1.,1.,-2.5,0.,1.,2.5,0.,0.,5.,0., 0000015P0000164
0.,1.;                                                           0000015P0000165
126,68,3,1,0,1,0,0.,0.,0.,0.,4.299843718E-03,8.821244054E-03,    0000017P0000166
1.38279149E-02,1.951206163E-02,2.599879247E-02,3.336711555E-02,  0000017P0000167
4.166185081E-02,5.090790348E-02,6.111402071E-02,7.228008202E-02, 0000017P0000168
8.439776121E-02,9.745288036E-02,0.111426179,0.126293482,         0000017P0000169
0.142029186,0.158603159,0.17598219,0.194132445,0.213015741,      0000017P0000170
0.232592439,0.252820384,0.273656127,0.295054734,0.316968995,     0000017P0000171
0.339349285,0.362145645,0.385305779,0.408779071,0.432510563,     0000017P0000172
0.456445078,0.480528177,0.50470317,0.528915244,0.553106307,      0000017P0000173
0.577221181,0.601203641,0.624995215,0.648542475,0.671789018,     0000017P0000174
0.694680101,0.717161282,0.73918187,0.760688338,0.781629802,      0000017P0000175
0.801957849,0.821624613,0.840583516,0.858789608,0.876200357,     0000017P0000176
0.892772862,0.908470273,0.923254847,0.937089691,0.949943842,     0000017P0000177
0.961785707,0.972587263,0.982322707,0.990969196,0.998505136,     0000017P0000178
1.004912747,1.010176225,1.014283411,1.017224707,1.018991773,     0000017P0000179
1.019581502,1.029660569,1.029660569,1.029660569,1.029660569,1.,  0000017P0000180
1.,1.,1.,1.,1.,1.,1.,1.,1.,1.,1.,1.,1.,1.,1.,1.,1.,1.,1.,1.,1.,  0000017P0000181
1.,1.,1.,1.,1.,1.,1.,1.,1.,1.,1.,1.,1.,1.,1.,1.,1.,1.,1.,1.,1.,  0000017P0000182
1.,1.,1.,1.,1.,1.,1.,1.,1.,1.,1.,1.,1.,1.,1.,1.,1.,1.,1.,1.,1.,  0000017P0000183
1.,1.,1.,1.,1.,0.,-2.5,0.,-1.232957866E-05,-2.5,1.453715274E-03, 0000017P0000184
4.143242186E-04,-2.5,4.378902723E-03,2.235125045E-03,-2.5,       0000017P0000185
8.66459269E-03,5.228437791E-03,-2.5,1.277529677E-02,             0000017P0000186
9.340486677E-03,-2.5,1.674874281E-02,1.456557979E-02,-2.5,       0000017P0000187
2.059064811E-02,2.089225679E-02,-2.5,2.430912029E-02,            0000017P0000188
2.831359267E-02,-2.5,2.789727674E-02,3.681530669E-02,-2.5,       0000017P0000189
3.134783322E-02,4.638061443E-02,-2.5,3.465077648E-02,            0000017P0000190
5.698910322E-02,-2.5,3.779471735E-02,6.861738574E-02,-2.5,       0000017P0000191
4.076920911E-02,8.123976577E-02,-2.5,4.356092828E-02,            0000017P0000192
9.482674417E-02,-2.5,4.616041067E-02,0.109347051,-2.5,           0000017P0000193
4.855788201E-02,0.124767407,-2.5,5.074136007E-02,0.141051488,    0000017P0000194
-2.5,5.270677469E-02,0.15816175,-2.5,5.444613698E-02,            0000017P0000195
0.176058439,-2.5,5.595284873E-02,0.194699946,-2.5,               0000017P0000196
5.722417149E-02,0.214042373,-2.5,5.825984015E-02,0.234040689,    0000017P0000197
-2.5,5.90569519E-02,0.254648232,-2.5,5.962123417E-02,            0000017P0000198
0.275817329,-2.5,5.99501899E-02,0.297498377,-2.5,                0000017P0000199
6.005376045E-02,0.319640631,-2.5,5.993660239E-02,0.342191945,    0000017P0000200
-2.5,5.960567747E-02,0.365100197,-2.5,5.907028682E-02,           0000017P0000201
0.388311907,-2.5,5.833986887E-02,0.411773032,-2.5,               0000017P0000202
5.74274162E-02,0.435428427,-2.5,5.634305875E-02,0.459222651,     0000017P0000203
-2.5,5.509887611E-02,0.483100675,-2.5,5.370845121E-02,           0000017P0000204
0.507006287,-2.5,5.218277959E-02,0.530884155,-2.5,               0000017P0000205
5.053659569E-02,0.554678537,-2.5,4.878304895E-02,0.578333517,    0000017P0000206
-2.5,4.693313743E-02,0.601794149,-2.5,4.500171132E-02,           0000017P0000207
0.625005343,-2.5,4.300110502E-02,0.647913008,-2.5,               0000017P0000208
4.094026701E-02,0.670463502,-2.5,3.883623394E-02,0.69260422,     0000017P0000209
-2.5,3.669588469E-02,0.714283747,-2.5,3.453408494E-02,           0000017P0000210
0.735451108,-2.5,3.235762435E-02,0.756057127,-2.5,               0000017P0000211
3.018328583E-02,0.77605323,-2.5,2.801509871E-02,0.7953935,-2.5,  0000017P0000212
2.586855724E-02,0.814032153,-2.5,2.374942658E-02,0.831926243,    0000017P0000213
-2.5,2.167290838E-02,0.84903296,-2.5,1.964430573E-02,            0000017P0000214
0.865312977,-2.5,1.767577089E-02,0.880728383,-2.5,               0000017P0000215
1.577758992E-02,0.89524306,-2.5,1.395823595E-02,0.908822977,     0000017P0000216
-2.5,1.22271187E-02,0.921436519,-2.5,1.059634975E-02,            0000017P0000217
0.933054022,-2.5,9.070053083E-03,0.943648594,-2.5,               0000017P0000218
7.660480161E-03,0.95319555,-2.5,6.374252092E-03,0.961672699,     0000017P0000219
-2.5,5.220603486E-03,0.969059966,-2.5,4.204466917E-03,           0000017P0000220
0.975339844,-2.5,3.332425827E-03,0.980498373,-2.5,               0000017P0000221
2.613906371E-03,0.984522915,-2.5,2.048029985E-03,0.987404321,    0000017P0000222
-2.5,1.641219034E-03,0.989136015,-2.5,1.396636059E-03,           0000017P0000223
0.993200341,-2.5,8.198672984E-04,0.996688072,-2.5,               0000017P0000224
3.323139682E-04,1.,-2.5,0.,0.,1.029660569,-1.331312692E-18,-1.,  0000017P0000225
5.453056785E-15;                                                 0000017P0000226
126,2,2,0,0,1,0,0.,0.,0.,5.,5.,5.,1.,1.,1.,0.,0.,0.,             0000019P0000227
-1.366073488E-22,-2.5,0.,0.,-5.,-0.,0.,5.,0.,0.,1.;              0000019P0000228
126,2,2,0,0,1,0,0.,0.,0.,1.029660569,1.029660569,1.029660569,1., 0000021P0000229
1.,1.,0.,-5.,-0.,0.514830285,-5.,-0.,1.029660569,-5.,-0.,0.,     0000021P0000230
1.029660569,0.,0.,1.;                                            0000021P0000231
126,2,2,0,0,1,0,0.,0.,0.,5.,5.,5.,1.,1.,1.,1.029660569,-5.,-0.,  0000023P0000232
1.029660569,-2.5,-0.,1.029660569,0.,0.,0.,5.,0.,0.,1.;           0000023P0000233
126,2,2,0,0,1,0,0.,0.,0.,1.029660569,1.029660569,1.029660569,1., 0000025P0000234
1.,1.,1.029660569,0.,0.,0.514830285,0.,0.,0.,0.,0.,0.,           0000025P0000235
1.029660569,0.,0.,1.;                                            0000025P0000236
S      1G      4D     26P    236                                        T0000001
