                                                                        S0000001
,,31HOpen CASCADE IGES processor 6.5,13HFilename.iges,                  G0000001
16HOpen CASCADE 6.5,31HOpen CASCADE IGES processor 6.5,32,308,15,308,15,G0000002
,1.,6,1HM,1,0.00001,15H20161205.163638,1E-07,2.5,5Hamola,,11,0,         G0000003
15H20161205.163638,;                                                    G0000004
     510       1       0       0       0       0       0       000010000D0000001
     510       0       0       1       1                               0D0000002
     128       2       0       0       0       0       0       000010000D0000003
     128       0       0       7       0                               0D0000004
     508       9       0       0       0       0       0       000010000D0000005
     508       0       0       1       1                               0D0000006
     504      10       0       0       0       0       0       000010001D0000007
     504       0       0       1       1                               0D0000008
     126      11       0       0       0       0       0       000010000D0000009
     126       0       0      61       0                               0D0000010
     502      72       0       0       0       0       0       000010000D0000011
     502       0       0       1       1                               0D0000012
     126      73       0       0       0       0       0       000010000D0000013
     126       0       0      61       0                               0D0000014
     126     134       0       0       0       0       0       000010000D0000015
     126       0       0      55       0                               0D0000016
     126     189       0       0       0       0       0       000010000D0000017
     126       0       0      60       0                               0D0000018
510,3,1,1,5;                                                     0000001P0000001
128,1,1,1,1,0,0,1,0,0,-9.201051258E-03,-9.201051258E-03,         0000003P0000002
1.019201051,1.019201051,-7.365420685E-02,-7.365420685E-02,       0000003P0000003
7.365420685E-02,7.365420685E-02,1.,1.,1.,1.,-9.109951742E-03,    0000003P0000004
-2.5,-7.365420685E-02,1.009109952,-2.5,-7.365420685E-02,         0000003P0000005
-9.109951742E-03,-2.5,7.365420685E-02,1.009109952,-2.5,          0000003P0000006
7.365420685E-02,-9.201051258E-03,1.019201051,-7.365420685E-02,   0000003P0000007
7.365420685E-02;                                                 0000003P0000008
508,2,0,7,1,0,1,0,15,0,7,2,1,1,0,17;                             0000005P0000009
504,2,9,11,1,11,2,13,11,1,11,2;                                  0000007P0000010
126,68,3,1,0,1,0,0.,0.,0.,0.,4.299843718E-03,8.821244054E-03,    0000009P0000011
1.38279149E-02,1.951206163E-02,2.599879247E-02,3.336711555E-02,  0000009P0000012
4.166185081E-02,5.090790348E-02,6.111402071E-02,7.228008202E-02, 0000009P0000013
8.439776121E-02,9.745288036E-02,0.111426179,0.126293482,         0000009P0000014
0.142029186,0.158603159,0.17598219,0.194132445,0.213015741,      0000009P0000015
0.232592439,0.252820384,0.273656127,0.295054734,0.316968995,     0000009P0000016
0.339349285,0.362145645,0.385305779,0.408779071,0.432510563,     0000009P0000017
0.456445078,0.480528177,0.50470317,0.528915244,0.553106307,      0000009P0000018
0.577221181,0.601203641,0.624995215,0.648542475,0.671789018,     0000009P0000019
0.694680101,0.717161282,0.73918187,0.760688338,0.781629802,      0000009P0000020
0.801957849,0.821624613,0.840583516,0.858789608,0.876200357,     0000009P0000021
0.892772862,0.908470273,0.923254847,0.937089691,0.949943842,     0000009P0000022
0.961785707,0.972587263,0.982322707,0.990969196,0.998505136,     0000009P0000023
1.004912747,1.010176225,1.014283411,1.017224707,1.018991773,     0000009P0000024
1.019581502,1.029660569,1.029660569,1.029660569,1.029660569,1.,  0000009P0000025
1.,1.,1.,1.,1.,1.,1.,1.,1.,1.,1.,1.,1.,1.,1.,1.,1.,1.,1.,1.,1.,  0000009P0000026
1.,1.,1.,1.,1.,1.,1.,1.,1.,1.,1.,1.,1.,1.,1.,1.,1.,1.,1.,1.,1.,  0000009P0000027
1.,1.,1.,1.,1.,1.,1.,1.,1.,1.,1.,1.,1.,1.,1.,1.,1.,1.,1.,1.,1.,  0000009P0000028
1.,1.,1.,1.,1.,0.,-2.5,0.,-1.232957866E-05,-2.5,1.453715274E-03, 0000009P0000029
4.143242186E-04,-2.5,4.378902723E-03,2.235125045E-03,-2.5,       0000009P0000030
8.66459269E-03,5.228437791E-03,-2.5,1.277529677E-02,             0000009P0000031
9.340486677E-03,-2.5,1.674874281E-02,1.456557979E-02,-2.5,       0000009P0000032
2.059064811E-02,2.089225679E-02,-2.5,2.430912029E-02,            0000009P0000033
2.831359267E-02,-2.5,2.789727674E-02,3.681530669E-02,-2.5,       0000009P0000034
3.134783322E-02,4.638061443E-02,-2.5,3.465077648E-02,            0000009P0000035
5.698910322E-02,-2.5,3.779471735E-02,6.861738574E-02,-2.5,       0000009P0000036
4.076920911E-02,8.123976577E-02,-2.5,4.356092828E-02,            0000009P0000037
9.482674417E-02,-2.5,4.616041067E-02,0.109347051,-2.5,           0000009P0000038
4.855788201E-02,0.124767407,-2.5,5.074136007E-02,0.141051488,    0000009P0000039
-2.5,5.270677469E-02,0.15816175,-2.5,5.444613698E-02,            0000009P0000040
0.176058439,-2.5,5.595284873E-02,0.194699946,-2.5,               0000009P0000041
5.722417149E-02,0.214042373,-2.5,5.825984015E-02,0.234040689,    0000009P0000042
-2.5,5.90569519E-02,0.254648232,-2.5,5.962123417E-02,            0000009P0000043
0.275817329,-2.5,5.99501899E-02,0.297498377,-2.5,                0000009P0000044
6.005376045E-02,0.319640631,-2.5,5.993660239E-02,0.342191945,    0000009P0000045
-2.5,5.960567747E-02,0.365100197,-2.5,5.907028682E-02,           0000009P0000046
0.388311907,-2.5,5.833986887E-02,0.411773032,-2.5,               0000009P0000047
5.74274162E-02,0.435428427,-2.5,5.634305875E-02,0.459222651,     0000009P0000048
-2.5,5.509887611E-02,0.483100675,-2.5,5.370845121E-02,           0000009P0000049
0.507006287,-2.5,5.218277959E-02,0.530884155,-2.5,               0000009P0000050
5.053659569E-02,0.554678537,-2.5,4.878304895E-02,0.578333517,    0000009P0000051
-2.5,4.693313743E-02,0.601794149,-2.5,4.500171132E-02,           0000009P0000052
0.625005343,-2.5,4.300110502E-02,0.647913008,-2.5,               0000009P0000053
4.094026701E-02,0.670463502,-2.5,3.883623394E-02,0.69260422,     0000009P0000054
-2.5,3.669588469E-02,0.714283747,-2.5,3.453408494E-02,           0000009P0000055
0.735451108,-2.5,3.235762435E-02,0.756057127,-2.5,               0000009P0000056
3.018328583E-02,0.77605323,-2.5,2.801509871E-02,0.7953935,-2.5,  0000009P0000057
2.586855724E-02,0.814032153,-2.5,2.374942658E-02,0.831926243,    0000009P0000058
-2.5,2.167290838E-02,0.84903296,-2.5,1.964430573E-02,            0000009P0000059
0.865312977,-2.5,1.767577089E-02,0.880728383,-2.5,               0000009P0000060
1.577758992E-02,0.89524306,-2.5,1.395823595E-02,0.908822977,     0000009P0000061
-2.5,1.22271187E-02,0.921436519,-2.5,1.059634975E-02,            0000009P0000062
0.933054022,-2.5,9.070053083E-03,0.943648594,-2.5,               0000009P0000063
7.660480161E-03,0.95319555,-2.5,6.374252092E-03,0.961672699,     0000009P0000064
-2.5,5.220603486E-03,0.969059966,-2.5,4.204466917E-03,           0000009P0000065
0.975339844,-2.5,3.332425827E-03,0.980498373,-2.5,               0000009P0000066
2.613906371E-03,0.984522915,-2.5,2.048029985E-03,0.987404321,    0000009P0000067
-2.5,1.641219034E-03,0.989136015,-2.5,1.396636059E-03,           0000009P0000068
0.993200341,-2.5,8.198672984E-04,0.996688072,-2.5,               0000009P0000069
3.323139682E-04,1.,-2.5,0.,0.,1.029660569,-1.331312692E-18,-1.,  0000009P0000070
5.453056785E-15;                                                 0000009P0000071
502,2,0.,-2.5,0.,1.,-2.5,0.;                                     0000011P0000072
126,68,3,1,0,1,0,0.,0.,0.,0.,4.299843718E-03,8.821244054E-03,    0000013P0000073
1.38279149E-02,1.951206163E-02,2.599879247E-02,3.336711555E-02,  0000013P0000074
4.166185081E-02,5.090790348E-02,6.111402071E-02,7.228008202E-02, 0000013P0000075
8.439776121E-02,9.745288036E-02,0.111426179,0.126293482,         0000013P0000076
0.142029186,0.158603159,0.17598219,0.194132445,0.213015741,      0000013P0000077
0.232592439,0.252820384,0.273656127,0.295054734,0.316968995,     0000013P0000078
0.339349285,0.362145645,0.385305779,0.408779071,0.432510563,     0000013P0000079
0.456445078,0.480528177,0.50470317,0.528915244,0.553106307,      0000013P0000080
0.577221181,0.601203641,0.624995215,0.648542475,0.671789018,     0000013P0000081
0.694680101,0.717161282,0.73918187,0.760688338,0.781629802,      0000013P0000082
0.801957849,0.821624613,0.840583516,0.858789608,0.876200357,     0000013P0000083
0.892772862,0.908470273,0.923254847,0.937089691,0.949943842,     0000013P0000084
0.961785707,0.972587263,0.982322707,0.990969196,0.998505136,     0000013P0000085
1.004912747,1.010176225,1.014283411,1.017224707,1.018991773,     0000013P0000086
1.019581502,1.029660569,1.029660569,1.029660569,1.029660569,1.,  0000013P0000087
1.,1.,1.,1.,1.,1.,1.,1.,1.,1.,1.,1.,1.,1.,1.,1.,1.,1.,1.,1.,1.,  0000013P0000088
1.,1.,1.,1.,1.,1.,1.,1.,1.,1.,1.,1.,1.,1.,1.,1.,1.,1.,1.,1.,1.,  0000013P0000089
1.,1.,1.,1.,1.,1.,1.,1.,1.,1.,1.,1.,1.,1.,1.,1.,1.,1.,1.,1.,1.,  0000013P0000090
1.,1.,1.,1.,1.,0.,-2.5,0.,-1.232957866E-05,-2.5,                 0000013P0000091
-1.453715274E-03,4.143242186E-04,-2.5,-4.378902723E-03,          0000013P0000092
2.235125045E-03,-2.5,-8.66459269E-03,5.228437791E-03,-2.5,       0000013P0000093
-1.277529677E-02,9.340486677E-03,-2.5,-1.674874281E-02,          0000013P0000094
1.456557979E-02,-2.5,-2.059064811E-02,2.089225679E-02,-2.5,      0000013P0000095
-2.430912029E-02,2.831359267E-02,-2.5,-2.789727674E-02,          0000013P0000096
3.681530669E-02,-2.5,-3.134783322E-02,4.638061443E-02,-2.5,      0000013P0000097
-3.465077648E-02,5.698910322E-02,-2.5,-3.779471735E-02,          0000013P0000098
6.861738574E-02,-2.5,-4.076920911E-02,8.123976577E-02,-2.5,      0000013P0000099
-4.356092828E-02,9.482674417E-02,-2.5,-4.616041067E-02,          0000013P0000100
0.109347051,-2.5,-4.855788201E-02,0.124767407,-2.5,              0000013P0000101
-5.074136007E-02,0.141051488,-2.5,-5.270677469E-02,0.15816175,   0000013P0000102
-2.5,-5.444613698E-02,0.176058439,-2.5,-5.595284873E-02,         0000013P0000103
0.194699946,-2.5,-5.722417149E-02,0.214042373,-2.5,              0000013P0000104
-5.825984015E-02,0.234040689,-2.5,-5.90569519E-02,0.254648232,   0000013P0000105
-2.5,-5.962123417E-02,0.275817329,-2.5,-5.99501899E-02,          0000013P0000106
0.297498377,-2.5,-6.005376045E-02,0.319640631,-2.5,              0000013P0000107
-5.993660239E-02,0.342191945,-2.5,-5.960567747E-02,0.365100197,  0000013P0000108
-2.5,-5.907028682E-02,0.388311907,-2.5,-5.833986887E-02,         0000013P0000109
0.411773032,-2.5,-5.74274162E-02,0.435428427,-2.5,               0000013P0000110
-5.634305875E-02,0.459222651,-2.5,-5.509887611E-02,0.483100675,  0000013P0000111
-2.5,-5.370845121E-02,0.507006287,-2.5,-5.218277959E-02,         0000013P0000112
0.530884155,-2.5,-5.053659569E-02,0.554678537,-2.5,              0000013P0000113
-4.878304895E-02,0.578333517,-2.5,-4.693313743E-02,0.601794149,  0000013P0000114
-2.5,-4.500171132E-02,0.625005343,-2.5,-4.300110502E-02,         0000013P0000115
0.647913008,-2.5,-4.094026701E-02,0.670463502,-2.5,              0000013P0000116
-3.883623394E-02,0.69260422,-2.5,-3.669588469E-02,0.714283747,   0000013P0000117
-2.5,-3.453408494E-02,0.735451108,-2.5,-3.235762435E-02,         0000013P0000118
0.756057127,-2.5,-3.018328583E-02,0.77605323,-2.5,               0000013P0000119
-2.801509871E-02,0.7953935,-2.5,-2.586855724E-02,0.814032153,    0000013P0000120
-2.5,-2.374942658E-02,0.831926243,-2.5,-2.167290838E-02,         0000013P0000121
0.84903296,-2.5,-1.964430573E-02,0.865312977,-2.5,               0000013P0000122
-1.767577089E-02,0.880728383,-2.5,-1.577758992E-02,0.89524306,   0000013P0000123
-2.5,-1.395823595E-02,0.908822977,-2.5,-1.22271187E-02,          0000013P0000124
0.921436519,-2.5,-1.059634975E-02,0.933054022,-2.5,              0000013P0000125
-9.070053083E-03,0.943648594,-2.5,-7.660480161E-03,0.95319555,   0000013P0000126
-2.5,-6.374252092E-03,0.961672699,-2.5,-5.220603486E-03,         0000013P0000127
0.969059966,-2.5,-4.204466917E-03,0.975339844,-2.5,              0000013P0000128
-3.332425827E-03,0.980498373,-2.5,-2.613906371E-03,0.984522915,  0000013P0000129
-2.5,-2.048029985E-03,0.987404321,-2.5,-1.641219034E-03,         0000013P0000130
0.989136015,-2.5,-1.396636059E-03,0.993200341,-2.5,              0000013P0000131
-8.198672984E-04,0.996688072,-2.5,-3.323139682E-04,1.,-2.5,0.,   0000013P0000132
0.,1.029660569,1.331312692E-18,1.,5.453056785E-15;               0000013P0000133
126,68,3,1,0,1,0,0.,0.,0.,0.,1.007906742E-02,1.066879617E-02,    0000015P0000134
1.243586295E-02,1.537715824E-02,1.948434462E-02,2.474782218E-02, 0000015P0000135
3.115543391E-02,3.8691373E-02,4.733786281E-02,5.707330676E-02,   0000015P0000136
6.78748623E-02,7.971672778E-02,9.257087843E-02,0.106405722,      0000015P0000137
0.121190296,0.136887707,0.153460212,0.170870961,0.189077054,     0000015P0000138
0.208035957,0.22770272,0.248030768,0.268972232,0.290478699,      0000015P0000139
0.312499287,0.334980469,0.357871551,0.381118094,0.404665354,     0000015P0000140
0.428456928,0.452439389,0.476554262,0.500745325,0.524957399,     0000015P0000141
0.549132393,0.573215492,0.597150006,0.620881498,0.64435479,      0000015P0000142
0.667514924,0.690311284,0.712691574,0.734605836,0.756004442,     0000015P0000143
0.776840186,0.797068131,0.816644828,0.835528125,0.85367838,      0000015P0000144
0.87105741,0.887631384,0.903367087,0.918234391,0.932207689,      0000015P0000145
0.945262808,0.957380487,0.968546549,0.978752666,0.987998719,     0000015P0000146
0.996293454,1.003661777,1.010148508,1.015832655,1.020839325,     0000015P0000147
1.025360726,1.029660569,1.029660569,1.029660569,1.029660569,1.,  0000015P0000148
1.,1.,1.,1.,1.,1.,1.,1.,1.,1.,1.,1.,1.,1.,1.,1.,1.,1.,1.,1.,1.,  0000015P0000149
1.,1.,1.,1.,1.,1.,1.,1.,1.,1.,1.,1.,1.,1.,1.,1.,1.,1.,1.,1.,1.,  0000015P0000150
1.,1.,1.,1.,1.,1.,1.,1.,1.,1.,1.,1.,1.,1.,1.,1.,1.,1.,1.,1.,1.,  0000015P0000151
1.,1.,1.,1.,1.,1.01,0.,0.,1.006654953,3.323139682E-04,0.,        0000015P0000152
1.003132344,8.198672984E-04,0.,0.999027376,1.396636059E-03,0.,   0000015P0000153
0.997278364,1.641219034E-03,0.,0.994368144,2.048029985E-03,0.,   0000015P0000154
0.990303357,2.613906371E-03,0.,0.985093242,3.332425827E-03,0.,   0000015P0000155
0.978750566,4.204466917E-03,0.,0.971289426,5.220603486E-03,0.,   0000015P0000156
0.962727505,6.374252092E-03,0.,0.95308508,7.660480161E-03,0.,    0000015P0000157
0.942384562,9.070053083E-03,0.,0.930650884,1.059634975E-02,0.,   0000015P0000158
0.917911207,1.22271187E-02,0.,0.90419549,1.395823595E-02,0.,     0000015P0000159
0.889535666,1.577758992E-02,0.,0.873966107,1.767577089E-02,0.,   0000015P0000160
0.857523289,1.964430573E-02,0.,0.840245506,2.167290838E-02,0.,   0000015P0000161
0.822172475,2.374942658E-02,0.,0.803347435,2.586855724E-02,0.,   0000015P0000162
0.783813763,2.801509871E-02,0.,0.763617698,3.018328583E-02,0.,   0000015P0000163
0.742805619,3.235762435E-02,0.,0.721426584,3.453408494E-02,0.,   0000015P0000164
0.699530262,3.669588469E-02,0.,0.677168137,3.883623394E-02,0.,   0000015P0000165
0.654392138,4.094026701E-02,0.,0.631255397,4.300110502E-02,0.,   0000015P0000166
0.607812091,4.500171132E-02,0.,0.584116852,4.693313743E-02,0.,   0000015P0000167
0.560225322,4.878304895E-02,0.,0.536192996,5.053659569E-02,0.,   0000015P0000168
0.51207635,5.218277959E-02,0.,0.487931682,5.370845121E-02,0.,    0000015P0000169
0.463814878,5.509887611E-02,0.,0.439782711,5.634305875E-02,0.,   0000015P0000170
0.415890762,5.74274162E-02,0.,0.392195026,5.833986887E-02,0.,    0000015P0000171
0.368751199,5.907028682E-02,0.,0.345613865,5.960567747E-02,0.,   0000015P0000172
0.322837038,5.993660239E-02,0.,0.30047336,6.005376045E-02,0.,    0000015P0000173
0.278575503,5.99501899E-02,0.,0.257194714,5.962123417E-02,0.,    0000015P0000174
0.236381096,5.90569519E-02,0.,0.216182797,5.825984015E-02,0.,    0000015P0000175
0.196646945,5.722417149E-02,0.,0.177819024,5.595284873E-02,0.,   0000015P0000176
0.159743368,5.444613698E-02,0.,0.142462003,5.270677469E-02,0.,   0000015P0000177
0.126015081,5.074136007E-02,0.,0.110440521,4.855788201E-02,0.,   0000015P0000178
9.57750116E-02,4.616041067E-02,0.,8.205216342E-02,               0000015P0000179
4.356092828E-02,0.,6.930355959E-02,4.076920911E-02,0.,           0000015P0000180
5.755899425E-02,3.779471735E-02,0.,4.684442057E-02,              0000015P0000181
3.465077648E-02,0.,3.718345975E-02,3.134783322E-02,0.,           0000015P0000182
2.859672859E-02,2.789727674E-02,0.,2.110117935E-02,              0000015P0000183
2.430912029E-02,0.,1.471123558E-02,2.059064811E-02,0.,           0000015P0000184
9.433891543E-03,1.674874281E-02,0.,5.280722169E-03,              0000015P0000185
1.277529677E-02,0.,2.257476295E-03,8.66459269E-03,0.,            0000015P0000186
4.184674607E-04,4.378902723E-03,0.,-1.245287445E-05,             0000015P0000187
1.453715274E-03,0.,0.,0.,0.,0.,1.029660569,0.,0.,1.;             0000015P0000188
126,68,3,1,0,1,0,0.,0.,0.,0.,4.299843718E-03,8.821244054E-03,    0000017P0000189
1.38279149E-02,1.951206163E-02,2.599879247E-02,3.336711555E-02,  0000017P0000190
4.166185081E-02,5.090790348E-02,6.111402071E-02,7.228008202E-02, 0000017P0000191
8.439776121E-02,9.745288036E-02,0.111426179,0.126293482,         0000017P0000192
0.142029186,0.158603159,0.17598219,0.194132445,0.213015741,      0000017P0000193
0.232592439,0.252820384,0.273656127,0.295054734,0.316968995,     0000017P0000194
0.339349285,0.362145645,0.385305779,0.408779071,0.432510563,     0000017P0000195
0.456445078,0.480528177,0.50470317,0.528915244,0.553106307,      0000017P0000196
0.577221181,0.601203641,0.624995215,0.648542475,0.671789018,     0000017P0000197
0.694680101,0.717161282,0.73918187,0.760688338,0.781629802,      0000017P0000198
0.801957849,0.821624613,0.840583516,0.858789608,0.876200357,     0000017P0000199
0.892772862,0.908470273,0.923254847,0.937089691,0.949943842,     0000017P0000200
0.961785707,0.972587263,0.982322707,0.990969196,0.998505136,     0000017P0000201
1.004912747,1.010176225,1.014283411,1.017224707,1.018991773,     0000017P0000202
1.019581502,1.029660569,1.029660569,1.029660569,1.029660569,1.,  0000017P0000203
1.,1.,1.,1.,1.,1.,1.,1.,1.,1.,1.,1.,1.,1.,1.,1.,1.,1.,1.,1.,1.,  0000017P0000204
1.,1.,1.,1.,1.,1.,1.,1.,1.,1.,1.,1.,1.,1.,1.,1.,1.,1.,1.,1.,1.,  0000017P0000205
1.,1.,1.,1.,1.,1.,1.,1.,1.,1.,1.,1.,1.,1.,1.,1.,1.,1.,1.,1.,1.,  0000017P0000206
1.,1.,1.,1.,1.,0.,0.,0.,-1.245287445E-05,-1.453715274E-03,0.,    0000017P0000207
4.184674607E-04,-4.378902723E-03,-0.,2.257476295E-03,            0000017P0000208
-8.66459269E-03,-0.,5.280722169E-03,-1.277529677E-02,-0.,        0000017P0000209
9.433891543E-03,-1.674874281E-02,-0.,1.471123558E-02,            0000017P0000210
-2.059064811E-02,-0.,2.110117935E-02,-2.430912029E-02,-0.,       0000017P0000211
2.859672859E-02,-2.789727674E-02,-0.,3.718345975E-02,            0000017P0000212
-3.134783322E-02,-0.,4.684442057E-02,-3.465077648E-02,-0.,       0000017P0000213
5.755899425E-02,-3.779471735E-02,-0.,6.930355959E-02,            0000017P0000214
-4.076920911E-02,-0.,8.205216342E-02,-4.356092828E-02,-0.,       0000017P0000215
9.57750116E-02,-4.616041067E-02,-0.,0.110440521,                 0000017P0000216
-4.855788201E-02,-0.,0.126015081,-5.074136007E-02,-0.,           0000017P0000217
0.142462003,-5.270677469E-02,-0.,0.159743368,-5.444613698E-02,   0000017P0000218
-0.,0.177819024,-5.595284873E-02,-0.,0.196646945,                0000017P0000219
-5.722417149E-02,-0.,0.216182797,-5.825984015E-02,-0.,           0000017P0000220
0.236381096,-5.90569519E-02,-0.,0.257194714,-5.962123417E-02,    0000017P0000221
-0.,0.278575503,-5.99501899E-02,-0.,0.30047336,-6.005376045E-02, 0000017P0000222
-0.,0.322837038,-5.993660239E-02,-0.,0.345613865,                0000017P0000223
-5.960567747E-02,-0.,0.368751199,-5.907028682E-02,-0.,           0000017P0000224
0.392195026,-5.833986887E-02,-0.,0.415890762,-5.74274162E-02,    0000017P0000225
-0.,0.439782711,-5.634305875E-02,-0.,0.463814878,                0000017P0000226
-5.509887611E-02,-0.,0.487931682,-5.370845121E-02,-0.,           0000017P0000227
0.51207635,-5.218277959E-02,-0.,0.536192996,-5.053659569E-02,    0000017P0000228
-0.,0.560225322,-4.878304895E-02,-0.,0.584116852,                0000017P0000229
-4.693313743E-02,-0.,0.607812091,-4.500171132E-02,-0.,           0000017P0000230
0.631255397,-4.300110502E-02,-0.,0.654392138,-4.094026701E-02,   0000017P0000231
-0.,0.677168137,-3.883623394E-02,-0.,0.699530262,                0000017P0000232
-3.669588469E-02,-0.,0.721426584,-3.453408494E-02,-0.,           0000017P0000233
0.742805619,-3.235762435E-02,-0.,0.763617698,-3.018328583E-02,   0000017P0000234
-0.,0.783813763,-2.801509871E-02,-0.,0.803347435,                0000017P0000235
-2.586855724E-02,-0.,0.822172475,-2.374942658E-02,-0.,           0000017P0000236
0.840245506,-2.167290838E-02,-0.,0.857523289,-1.964430573E-02,   0000017P0000237
-0.,0.873966107,-1.767577089E-02,-0.,0.889535666,                0000017P0000238
-1.577758992E-02,-0.,0.90419549,-1.395823595E-02,-0.,            0000017P0000239
0.917911207,-1.22271187E-02,-0.,0.930650884,-1.059634975E-02,    0000017P0000240
-0.,0.942384562,-9.070053083E-03,-0.,0.95308508,                 0000017P0000241
-7.660480161E-03,-0.,0.962727505,-6.374252092E-03,-0.,           0000017P0000242
0.971289426,-5.220603486E-03,-0.,0.978750566,-4.204466917E-03,   0000017P0000243
-0.,0.985093242,-3.332425827E-03,-0.,0.990303357,                0000017P0000244
-2.613906371E-03,-0.,0.994368144,-2.048029985E-03,-0.,           0000017P0000245
0.997278364,-1.641219034E-03,-0.,0.999027376,-1.396636059E-03,   0000017P0000246
-0.,1.003132344,-8.198672984E-04,-0.,1.006654953,                0000017P0000247
-3.323139682E-04,-0.,1.01,0.,0.,0.,1.029660569,0.,0.,1.;         0000017P0000248
S      1G      4D     18P    248                                        T0000001
